<?xml version="1.0" encoding="utf-8"?>
<!-- Generator: Adobe Illustrator 16.1.0, SVG Export Plug-In . SVG Version: 6.00 Build 0)  -->
<!DOCTYPE svg PUBLIC "-//W3C//DTD SVG 1.1//EN" "http://www.w3.org/Graphics/SVG/1.1/DTD/svg11.dtd">
<svg version="1.1" id="Layer_1" xmlns="http://www.w3.org/2000/svg" xmlns:xlink="http://www.w3.org/1999/xlink" x="0px" y="0px"
	 width="400px" height="114.217px" viewBox="0 0 400 114.217" enable-background="new 0 0 400 114.217" xml:space="preserve">
<path d="M42.444,113.107h16.133l3.354-1.438c0,0,2.556-5.271,17.411-5.271s16.932,5.271,16.932,5.271l3.993,1.438h15.973v-8.945
	l-8.466-8.625c-11.027-3.474-13.783-6.948-13.783-12.818s2.276-11.74,13.417-17.012c11.141-5.271,29.59-6.829,30.699-7.937
	c1.108-1.108,1.044-4.842,1.317-5.481c0.273-0.639,1.015-0.719,1.015-0.719v-5.311H55.463l-0.16,3.674c0,0-1.199,0.878-2.796,1.038
	s-5.191,0.08-5.191,0.08v1.677c0,0-9.025,0.16-21.404,0.16c-10.281,0-20.411-0.492-23.807-0.679c-0.693-0.038-1.797-0.2-2.036,0.239
	c-0.24,0.439,0.19,1.044,0.479,1.478c0.299,0.449,5.855,8.346,20.891,14.535c15.135,6.229,21.781,6.166,27.115,6.709
	c6.887,0.702,14.735,1.917,14.735,9.424c0,9.024-7.228,9.384-13.737,10.702l-7.108,7.827L42.444,113.107z"/>
<g>
	<path d="M180.207,29.769c1.946,4.594,4.352,10.22,7.213,16.878c2.862,6.658,5.82,13.511,8.877,20.557
		c3.056,7.047,6.015,13.899,8.877,20.557c2.861,6.658,5.285,12.264,7.271,16.819c0.584,1.441,1.732,2.745,3.446,3.914
		c0.895,0.584,1.781,1.071,2.657,1.459c0.876,0.389,1.586,0.759,2.132,1.109c0.388,0.273,0.642,0.545,0.759,0.818
		c0.077,0.156,0.116,0.312,0.116,0.468c0,0.116-0.039,0.253-0.116,0.408c-0.117,0.233-0.351,0.351-0.701,0.351h-19.739
		c-0.351,0-0.701-0.117-1.051-0.351c-0.391-0.272-0.623-0.564-0.701-0.876c-0.079-0.116-0.116-0.234-0.116-0.35
		c0-0.352,0.232-0.72,0.7-1.11c0.35-0.351,0.778-0.72,1.285-1.11c0.505-0.389,0.876-0.914,1.109-1.577
		c0.116-0.311,0.175-0.662,0.175-1.051c0-0.662-0.155-1.382-0.468-2.161l-8.643-19.973h-34.048
		c-1.402,3.349-2.794,6.688-4.176,10.016s-2.774,6.648-4.175,9.958c-0.351,0.779-0.546,1.479-0.584,2.103
		c-0.039,0.272-0.059,0.544-0.059,0.817c0,0.389,0.059,0.76,0.175,1.11c0.117,0.506,0.312,0.924,0.584,1.255
		c0.272,0.332,0.468,0.672,0.584,1.021c0.039,0.313,0.059,0.526,0.059,0.644c0,0.116-0.039,0.253-0.117,0.408
		c-0.272,0.817-0.701,1.227-1.285,1.227h-15.067c-0.389,0-0.663-0.117-0.817-0.351c0-0.039-0.04-0.136-0.117-0.292
		c0-0.077,0.038-0.271,0.117-0.583c0.233-0.505,0.896-1.012,1.985-1.519c0.584-0.271,1.216-0.574,1.898-0.905
		c0.681-0.33,1.373-0.73,2.073-1.197c1.44-1.012,2.491-2.239,3.154-3.68l33.114-74.811H180.207z M191.245,79.819l-15.243-35.567
		c-2.492,5.958-4.975,11.895-7.447,17.812c-2.473,5.918-4.935,11.837-7.388,17.754H191.245z"/>
	<path d="M242.87,63.292c2.141-0.818,4.029-1.538,5.665-2.161c1.635-0.623,3.192-1.187,4.672-1.693
		c3.581-1.246,7.3-2.063,11.154-2.454c0.467-0.038,0.954-0.058,1.46-0.058c3.271,0,6.386,1.11,9.345,3.329
		c4.71,3.621,7.066,11.388,7.066,23.302v21.024c0,2.532,0.973,4.138,2.921,4.818c1.945,0.682,2.919,1.51,2.919,2.482
		c0,0.817-0.39,1.227-1.168,1.227h-14.191c-0.663,0-0.992-0.253-0.992-0.759V83.556c0-8.526-1.772-14.521-5.315-17.987
		c-2.258-2.22-5.022-3.329-8.293-3.329c-1.868,0-3.912,0.371-6.132,1.109c-0.856,0.312-1.938,0.711-3.241,1.198
		c-1.306,0.487-2.424,0.905-3.358,1.255c-0.935,0.351-1.771,0.663-2.511,0.935v37.843c0,2.532,0.973,4.138,2.92,4.818
		c1.946,0.682,2.92,1.51,2.92,2.482c0,0.817-0.39,1.227-1.168,1.227h-19.798c-0.818,0-1.226-0.409-1.226-1.227
		c0-0.973,0.972-1.8,2.919-2.482c1.946-0.681,2.921-2.286,2.921-4.818V67.204c0-2.453-0.975-4.03-2.921-4.73
		c-1.947-0.701-2.919-1.557-2.919-2.57c0-0.818,0.407-1.227,1.226-1.227c2.569-0.116,5.11-0.516,7.622-1.197
		c2.511-0.681,5.012-1.45,7.504-2.307V63.292z"/>
	<path d="M305.258,66.094l15.302,37.318l13.432-32.179c0.351-0.817,0.526-1.615,0.526-2.394c0-1.363-0.546-2.687-1.636-3.971
		l-1.927-2.278l5.255-4.146c0.234-0.233,0.448-0.351,0.644-0.351c0.271,0,0.563,0.156,0.876,0.468L341,61.89
		c0.661,0.701,0.993,1.557,0.993,2.57c0,0.584-0.117,1.227-0.352,1.927c-0.623,1.869-1.538,4.05-2.744,6.541l-17.93,40.063
		c-0.195,0.389-0.39,0.701-0.584,0.935c-0.195,0.194-0.408,0.292-0.642,0.292h-4.905c-0.273,0-0.488-0.117-0.643-0.352
		c-0.118-0.115-0.264-0.418-0.438-0.904c-0.175-0.487-0.303-0.847-0.38-1.081l-19.098-45.495c-0.662-1.479-1.615-2.647-2.861-3.504
		c-0.817-0.506-1.626-0.935-2.423-1.285c-0.799-0.351-1.432-0.701-1.898-1.052c-0.272-0.155-0.507-0.408-0.701-0.759
		c-0.039-0.155-0.058-0.292-0.058-0.409c0-0.117,0.019-0.233,0.058-0.35c0.117-0.194,0.331-0.292,0.643-0.292h19.155
		c0.272,0,0.584,0.098,0.935,0.292c0.312,0.273,0.526,0.526,0.643,0.759c0.038,0.117,0.058,0.215,0.058,0.292
		c0,0.351-0.194,0.701-0.583,1.052c-1.323,1.207-2.044,2.005-2.161,2.394c-0.117,0.351-0.175,0.721-0.175,1.11
		C304.909,65.101,305.025,65.589,305.258,66.094z"/>
	<path d="M364.502,104.58c0,2.532,0.973,4.138,2.92,4.818c1.946,0.682,2.919,1.51,2.919,2.482c0,0.817-0.389,1.227-1.167,1.227
		h-19.799c-0.816,0-1.226-0.409-1.226-1.227c0-0.973,0.973-1.8,2.919-2.482c1.947-0.681,2.921-2.286,2.921-4.818V67.204
		c0-2.453-0.974-4.03-2.921-4.73c-1.946-0.701-2.919-1.557-2.919-2.57c0-0.818,0.409-1.227,1.226-1.227
		c2.57-0.116,5.11-0.516,7.622-1.197c2.512-0.681,5.013-1.45,7.505-2.307V104.58z M359.247,31.346c4.243,0,6.365,2.141,6.365,6.424
		c0,4.321-2.122,6.482-6.365,6.482c-4.245,0-6.366-2.161-6.366-6.482C352.88,33.487,355.001,31.346,359.247,31.346z"/>
	<path d="M394.16,104.58c0,2.532,0.973,4.138,2.921,4.818c1.946,0.682,2.919,1.51,2.919,2.482c0,0.817-0.389,1.227-1.168,1.227
		h-19.798c-0.817,0-1.226-0.409-1.226-1.227c0-0.973,0.973-1.8,2.92-2.482c1.945-0.681,2.92-2.286,2.92-4.818V39.697
		c0-2.491-0.975-4.087-2.92-4.789c-1.947-0.701-2.92-1.557-2.92-2.569c0-0.818,0.408-1.227,1.226-1.227
		c2.569-0.117,5.11-0.506,7.622-1.168c2.511-0.662,5.012-1.421,7.504-2.278V104.58z"/>
</g>
</svg>
